<svg xmlns="http://www.w3.org/2000/svg"  viewBox="0 0 64 64" width="64px" height="64px"><linearGradient id="dQGprZtK0cJTr_JF-qkAZa" x1="30.469" x2="30.469" y1="4" y2="24.122" gradientUnits="userSpaceOnUse"><stop offset=".117" stop-color="#6dc7ff"/><stop offset=".883" stop-color="#e6abff"/></linearGradient><polygon fill="url(#dQGprZtK0cJTr_JF-qkAZa)" points="23.5,24.123 21.263,13.973 39.676,4 39,12"/><linearGradient id="dQGprZtK0cJTr_JF-qkAZb" x1="19.5" x2="19.5" y1="13.973" y2="54.623" gradientUnits="userSpaceOnUse"><stop offset=".08" stop-color="#6dc7ff"/><stop offset=".846" stop-color="#e6abff"/></linearGradient><polygon fill="url(#dQGprZtK0cJTr_JF-qkAZb)" points="14,29 21.263,13.973 23.5,24.123 25,54.623"/><linearGradient id="dQGprZtK0cJTr_JF-qkAZc" x1="32.247" x2="32.247" y1="24.122" y2="59.986" gradientUnits="userSpaceOnUse"><stop offset=".133" stop-color="#6dc7ff"/><stop offset=".941" stop-color="#e6abff"/></linearGradient><polygon fill="url(#dQGprZtK0cJTr_JF-qkAZc)" points="25,54.623 40.993,59.986 23.5,24.123"/><linearGradient id="dQGprZtK0cJTr_JF-qkAZd" x1="39.338" x2="39.338" y1="4.779" y2="59.604" gradientUnits="userSpaceOnUse"><stop offset="0" stop-color="#1a6dff"/><stop offset="1" stop-color="#c822ff"/></linearGradient><path fill="url(#dQGprZtK0cJTr_JF-qkAZd)" d="M39.001,13	c-0.028,0-0.057-0.001-0.085-0.003c-0.55-0.047-0.958-0.53-0.912-1.081l0.676-8c0.047-0.55,0.524-0.964,1.081-0.912	c0.55,0.047,0.958,0.53,0.912,1.081l-0.676,8C39.952,12.606,39.515,13,39.001,13z"/><linearGradient id="dQGprZtK0cJTr_JF-qkAZe" x1="23.131" x2="23.131" y1="4.779" y2="59.604" gradientUnits="userSpaceOnUse"><stop offset="0" stop-color="#1a6dff"/><stop offset="1" stop-color="#c822ff"/></linearGradient><path fill="url(#dQGprZtK0cJTr_JF-qkAZe)" d="M24.999,55.624	c-0.53,0-0.972-0.416-0.998-0.951l-1.496-30.417l-2.219-10.067c-0.119-0.54,0.222-1.073,0.761-1.192	c0.541-0.12,1.073,0.222,1.192,0.761l2.237,10.149c0.012,0.055,0.02,0.11,0.022,0.166l1.5,30.501	c0.027,0.552-0.398,1.021-0.95,1.048C25.032,55.623,25.016,55.624,24.999,55.624z"/><linearGradient id="dQGprZtK0cJTr_JF-qkAZf" x1="36.75" x2="36.75" y1="4.779" y2="59.604" gradientUnits="userSpaceOnUse"><stop offset="0" stop-color="#1a6dff"/><stop offset="1" stop-color="#c822ff"/></linearGradient><path fill="url(#dQGprZtK0cJTr_JF-qkAZf)" d="M40.994,60.986	c-0.371,0-0.727-0.207-0.9-0.562L22.601,24.561c-0.207-0.424-0.089-0.936,0.283-1.226l15.5-12.123	c0.334-0.261,0.796-0.283,1.153-0.056l11,7c0.466,0.296,0.603,0.915,0.307,1.381c-0.296,0.466-0.914,0.604-1.381,0.307L39.06,13.223	L24.753,24.412l17.139,35.136c0.242,0.497,0.036,1.095-0.46,1.337C41.291,60.954,41.141,60.986,40.994,60.986z"/><linearGradient id="dQGprZtK0cJTr_JF-qkAZg" x1="32" x2="32" y1="4.779" y2="59.604" gradientUnits="userSpaceOnUse"><stop offset="0" stop-color="#1a6dff"/><stop offset="1" stop-color="#c822ff"/></linearGradient><path fill="url(#dQGprZtK0cJTr_JF-qkAZg)" d="M40.993,60.986	c-0.106,0-0.213-0.017-0.318-0.052l-15.993-5.362c-0.27-0.091-0.489-0.292-0.601-0.554l-11-25.624	c-0.114-0.266-0.107-0.569,0.019-0.83l7.263-15.027c0.091-0.189,0.24-0.344,0.424-0.444L39.2,3.121	c0.447-0.242,1.01-0.109,1.3,0.312l10.324,15c0.148,0.215,0.206,0.479,0.162,0.736l-6,35c-0.017,0.097-0.048,0.192-0.092,0.28	l-3.007,5.986C41.713,60.78,41.362,60.986,40.993,60.986z M25.742,53.818l14.747,4.944l2.551-5.078l5.906-34.452L39.362,5.308	l-17.34,9.391l-6.924,14.326L25.742,53.818z"/></svg>