<svg xmlns="http://www.w3.org/2000/svg"  viewBox="0 0 64 64" width="64px" height="64px"><path d="M50.707,16.293l-13-13c-0.312-0.311-0.788-0.382-1.175-0.177l-17,9c-0.2,0.105-0.357,0.276-0.448,0.483l-7,16	c-0.105,0.24-0.111,0.514-0.018,0.76l10,26c0.114,0.295,0.36,0.52,0.666,0.604l17.974,5C40.795,60.988,40.885,61,40.974,61	c0.384,0,0.743-0.222,0.909-0.584l5.026-11c0.043-0.093,0.07-0.191,0.083-0.292l4-32C51.03,16.817,50.926,16.511,50.707,16.293z M39.307,58.498L24.071,54.26l2.543-27.973L39.307,58.498z M26.155,20.431l-4.709-7.064l0,0L36,5.661v4.925L26.155,20.431z M38,6.414l7.328,7.328L38,10.36V6.414z M14.081,29.024l6.102-13.947l4.789,7.184l-2.579,28.374L14.081,29.024z M45.026,48.724	l-3.985,8.721l-13.87-35.202L37.214,12.2l11.703,5.401l0,0L45.026,48.724z"/></svg>