<?xml version="1.0" standalone="no"?><!DOCTYPE svg PUBLIC "-//W3C//DTD SVG 1.1//EN" "http://www.w3.org/Graphics/SVG/1.1/DTD/svg11.dtd"><svg t="1737342727898" class="icon" viewBox="0 0 1144 1024" version="1.1" xmlns="http://www.w3.org/2000/svg" p-id="5070" width="35.75" height="32" xmlns:xlink="http://www.w3.org/1999/xlink"><path d="M55.777882 854.859294l37.586824-41.863529 374.061176-416.527059 33.370353-37.165177c12.649412-14.034824 22.166588-24.877176 31.081412-35.358117 32.768-38.309647 54.934588-69.330824 71.198118-101.496471 17.347765-50.176 3.674353-90.654118-29.153883-124.446117A56.922353 56.922353 0 0 1 561.995294 36.201412a59.090824 59.090824 0 0 1 52.766118-35.900236L625.965176 0h7.228236c78.245647 0 128.301176 1.024 196.367059 5.601882 74.691765 4.939294 132.336941 32.045176 173.658353 74.209883 16.986353 17.287529 29.214118 34.755765 37.707294 50.597647l15.36 0.783059c2.349176 0.120471 11.203765-0.301176 24.576-1.204706a59.151059 59.151059 0 0 1 61.861647 43.971764A57.705412 57.705412 0 0 1 1108.751059 240.941176c-39.695059 16.865882-67.644235 60.476235-62.34353 81.076706 1.807059 6.927059 4.336941 13.733647 8.432942 22.648471 1.987765 4.336941 11.384471 23.371294 13.914353 28.912941 19.937882 42.767059 30.479059 84.088471 32.707764 145.528471 6.987294 189.500235-161.370353 356.472471-359.845647 356.47247-8.312471 0-19.275294 0-32.828235 0.120471-21.443765 17.287529-44.092235 33.129412-67.644235 47.585882C483.689412 1019.361882 284.912941 1051.346824 49.995294 998.942118L48.188235 998.460235a61.680941 61.680941 0 0 1-45.17647-40.719059 59.873882 59.873882 0 0 1 12.589176-58.849882c9.878588-10.962824 23.009882-25.298824 40.176941-44.092235z m90.352942 27.949177l-38.189177 41.622588c172.513882 31.804235 319.427765 12.348235 440.560941-46.98353-99.388235 1.204706-233.532235 3.011765-402.371764 5.421177z m655.36-98.484706c122.759529-28.250353 218.172235-140.107294 213.714823-262.083765-1.867294-49.995294-9.637647-80.474353-24.997647-113.543529-2.048-4.397176-11.504941-23.732706-14.034824-29.153883a209.859765 209.859765 0 0 1-13.492705-36.864c-10.782118-41.923765 7.589647-91.256471 42.405647-129.505882l-26.50353-1.385412-8.493176-28.973176a81.92 81.92 0 0 0-5.300706-11.806118 137.878588 137.878588 0 0 0-23.853177-32.647529c-26.684235-27.166118-64.331294-44.875294-117.217882-48.429177a2320.203294 2320.203294 0 0 0-152.816941-5.300706c28.009412 47.766588 35.779765 104.628706 12.769882 168.237177l-1.867294 4.457411a480.256 480.256 0 0 1-42.586353 69.270589c47.405176-1.084235 99.388235 11.625412 152.395294 42.887529 84.329412 49.754353 127.578353 154.142118 79.872 295.634824-12.468706 36.984471-36.683294 78.366118-69.993411 119.265882z m-125.048471 7.228235c57.344-51.079529 98.002824-108.303059 113.061647-152.877176 34.695529-103.002353 8.192-166.972235-42.405647-196.788706-50.959059-30.117647-97.219765-36.020706-139.625412-24.395294-29.756235 8.131765-55.838118 24.997647-69.632 40.116705-54.633412 59.753412-109.387294 119.386353-164.321882 178.838589l-3.011765 3.312941-145.347765 157.455059c215.04-3.011765 365.327059-4.939294 451.282824-5.662118z" fill="#487DFE" p-id="5071"></path><path d="M694.753882 777.517176c-86.558118 0.602353-257.927529 2.409412-514.048 5.541648l132.336942-125.349648C384.903529 593.016471 462.125176 523.685647 525.854118 466.763294c23.792941-21.202824 117.880471-78.908235 244.615529-17.950118 37.466353 18.010353 103.544471 73.125647 56.741647 186.127059-13.673412 33.129412-56.380235 90.774588-132.397176 142.516706z" fill="#E0F2FF" p-id="5072"></path></svg>